Coordinates
version=1
nRows=13
nColumns=34
inDegrees=yes

Units are S.I. units (second, meters, Newtons, ...)
If the header above contains a line with 'inDegrees', this indicates whether rotational values are in degrees (yes) or radians (no).

endheader
time	pelvis_tilt	pelvis_list	pelvis_rotation	pelvis_tx	pelvis_ty	pelvis_tz	hip_flexion_r	hip_adduction_r	hip_rotation_r	knee_angle_r	ankle_angle_r	subtalar_angle_r	mtp_angle_r	hip_flexion_l	hip_adduction_l	hip_rotation_l	knee_angle_l	ankle_angle_l	subtalar_angle_l	mtp_angle_l	lumbar_extension	lumbar_bending	lumbar_rotation	arm_flex_r	arm_add_r	arm_rot_r	elbow_flex_r	pro_sup_r	arm_flex_l	arm_add_l	arm_rot_l	elbow_flex_l	pro_sup_l
      0.00000000	     -4.35117398	     10.18425647	    -76.81587266	      0.83060568	      0.87775241	     -0.31436102	     29.58032429	     -6.77245768	      4.37642957	     15.97358638	    -31.04582823	    -35.00000000	      0.00000000	      7.27756197	      4.86010489	    -23.87019400	     17.07887584	     14.40196384	     -5.38472377	      0.00000000	     -6.14648611	    -10.60117382	      2.25073827	     23.43664067	     14.97475540	     55.16799477	     39.85939074	     72.51839842	     11.91701669	    -31.32844565	     33.62440534	     32.69191786	     53.74227050
      0.01666670	     -4.10579617	     11.70833978	    -77.71423612	      0.82964913	      0.88140121	     -0.31126960	     30.99113264	     -6.76970167	      5.85866157	     16.01548507	    -26.18314399	    -35.00000000	      0.00000000	      8.87751067	      5.07102449	    -25.10827075	     17.77295277	     15.22146234	     -0.91118830	      0.00000000	     -4.97441292	    -11.89983384	      4.19623793	     22.89123506	     16.23468255	     54.67330613	     34.70980239	     72.80057936	     15.68635040	    -28.09269484	     28.73087304	     29.36681648	     52.24682967
      0.03333330	     -3.60771983	     11.89539859	    -77.47405570	      0.82982536	      0.88254998	     -0.30841149	     30.75729450	     -7.74736879	      5.68726083	     15.55102975	    -24.89949945	    -35.00000000	      0.00000000	      8.41813258	      5.67832493	    -24.91455519	     16.96998477	     14.73167882	     -0.08638496	      0.00000000	     -5.31814822	    -13.10928363	      3.80012951	     23.26876672	     15.98785768	     57.14058639	     33.37015877	     74.98118510	     18.03162961	    -27.32724846	     26.75389434	     26.26127874	     48.56405359
      0.05000000	     -3.62226373	     12.15088546	    -77.45991400	      0.82872478	      0.88344606	     -0.30622240	     30.74087040	     -7.76104157	      4.87932880	     15.13388155	    -24.09524301	    -35.00000000	      0.00000000	      8.36144478	      5.71647692	    -24.55160735	     16.64692104	     13.64455125	      0.67562299	      0.00000000	     -5.42480898	    -13.08395010	      3.73825145	     22.80239759	     15.55965901	     57.38089158	     33.45116409	     75.13210544	     18.41350448	    -27.72003480	     26.70355024	     26.42939618	     48.29046525
      0.06666670	     -3.74806131	     12.02359976	    -77.42722899	      0.82871850	      0.88384214	     -0.30431898	     30.67103334	     -7.63136652	      3.73110886	     15.86105975	    -23.33387900	    -35.00000000	      0.00000000	      8.21964206	      5.51821956	    -24.32363006	     16.82152594	     13.03016205	      0.73150134	      0.00000000	     -6.26431458	    -12.50042510	      3.72071404	     22.67018100	     13.91680480	     55.86315396	     35.61144126	     91.56121644	     19.13878412	    -29.77530434	     40.71501030	     31.10562886	      0.00000000
      0.08333330	     -3.90249820	     11.89209945	    -77.34540721	      0.82948771	      0.88586322	     -0.30336074	     30.49339967	     -7.40295816	      2.79941634	     16.43044092	    -22.62090555	    -35.00000000	      0.00000000	      8.29855536	      5.33469551	    -23.99840432	     17.38674082	     12.60506047	     -0.16560456	      0.00000000	     -6.78543040	    -12.03642450	      4.21763220	     22.97766959	     11.93499454	     56.58414958	     36.88493947	     91.46365942	     19.69696500	    -28.79917082	     41.21528925	     30.22598594	      0.00000000
      0.10000000	     -4.04147566	     11.62859178	    -77.31268026	      0.82944016	      0.88777718	     -0.30236548	     30.26899323	     -7.16526621	      2.35350037	     17.23088899	    -21.89569269	    -35.00000000	      0.00000000	      8.16632491	      5.15449216	    -24.07931882	     17.97362919	     12.10779650	     -1.08225912	      0.00000000	     -7.42431338	    -11.49407141	      4.74322760	     23.26959973	      9.99074824	     57.11242896	     38.19988053	     91.38036778	     20.27468200	    -27.72882812	     41.60151525	     29.57449563	      0.00000000
      0.11666670	     -4.15135565	     11.24051191	    -77.17052809	      0.82780456	      0.88951034	     -0.30078216	     29.70599281	     -6.94010617	      2.15332273	     17.65891328	    -21.21688239	    -35.00000000	      0.00000000	      7.89316719	      4.96479320	    -24.06826103	     18.58341566	     11.61817957	     -1.85700733	      0.00000000	     -8.03891783	    -11.05788838	      5.14929172	     23.61062559	      8.47861033	     57.52870156	     39.28281122	     91.35662547	     20.75611872	    -26.93946853	     42.01513385	     29.39228425	      0.00000000
      0.13333330	     -4.38111507	     10.86972361	    -76.98009850	      0.82512156	      0.89131653	     -0.29850663	     29.05303548	     -6.55606396	      1.90583970	     17.86074225	    -20.60388058	    -35.00000000	      0.00000000	      7.68169189	      4.51320270	    -24.09259207	     19.12616442	     11.09861295	     -2.36168836	      0.00000000	     -8.58338860	    -10.58959726	      5.52607625	     23.94305086	      7.32098017	     57.98821321	     40.10886019	     91.40063453	     21.19813638	    -26.43724856	     42.42563897	     29.58851944	      0.00000000
      0.15000000	     -4.56900761	     10.66283855	    -76.85391826	      0.82254565	      0.89296110	     -0.29589638	     28.64666919	     -6.22696289	      1.51607913	     18.18157291	    -20.00031244	    -35.00000000	      0.00000000	      7.63432385	      3.99228836	    -24.36680685	     19.70452807	     10.43873695	     -2.61075816	      0.00000000	     -8.91235329	    -10.08278143	      5.71655164	     24.47248840	      6.81609199	     58.19931767	     40.52062964	     91.43570932	     21.44715688	    -26.04946240	     42.66668270	     29.82915997	      0.00000000
      0.16666670	     -4.57270520	     10.00832194	    -76.70509037	      0.82130893	      0.89432659	     -0.29291258	     27.51649373	     -6.05569337	      0.96627140	     18.04008517	    -19.72387942	    -35.00000000	      0.00000000	      7.07585680	      3.53878566	    -24.14594637	     20.25809388	      9.69958227	     -3.50537363	      0.00000000	     -9.94628531	     -9.82490295	      6.26390581	     25.45343172	      5.97800660	     59.64213900	     41.95493942	     91.63486151	     22.25020085	    -25.69517095	     44.20407534	     30.21495446	      0.18669269
      0.18333330	     -4.62981956	      9.76661292	    -76.45287223	      0.82045790	      0.89397319	     -0.28975129	     26.92385249	     -6.03807580	      0.38094541	     18.08555368	    -19.25046478	    -35.00000000	      0.00000000	      7.15266906	      2.93119722	    -24.01150440	     21.29625976	      9.36864772	     -3.89952817	      0.00000000	    -10.29759848	     -9.62444733	      6.82012014	     26.18360975	      6.51654818	     59.80537058	     40.93705759	     91.64552104	     22.79104476	    -25.26173936	     45.03562031	     30.50174883	      0.36061640
      0.20000000	     -4.43664159	      9.49628478	    -76.28022498	      0.81812405	      0.89288902	     -0.28670589	     26.33121633	     -6.26146924	     -0.11366735	     18.24985981	    -19.00807363	    -35.00000000	      0.00000000	      7.15268087	      2.47995258	    -23.82074245	     22.31272578	      8.36972977	     -4.43515487	      0.00000000	    -10.66699210	     -9.91510670	      7.19663353	     27.07699326	      8.28699132	     59.72745828	     38.02532706	     91.62956293	     23.48587417	    -25.22755647	     46.81193156	     30.38292352	      0.78611623
